HIERARCHY
ROOT SpineBase
{
  OFFSET 0.000000 0.000000 0.000000
  CHANNELS 6 Xposition Yposition Zposition Zrotation Xrotation Yrotation
  JOINT SpineMid
  {
    OFFSET 0.000000 26.450592 0.000000
    CHANNELS 3 Zrotation Xrotation Yrotation
    JOINT SpineShoulder
    {
      OFFSET -0.138000 19.656265 -0.766409
      CHANNELS 3 Zrotation Xrotation Yrotation
      JOINT Neck
      {
        OFFSET -0.081345 6.523902 -0.584469
        CHANNELS 3 Zrotation Xrotation Yrotation
        JOINT Head
        {
          OFFSET 2.263553 12.015313 0.381081
          CHANNELS 3 Zrotation Xrotation Yrotation
          End Site
          {
            OFFSET 0 0 0
          }
        }
      }
      JOINT ShoulderLeft
      {
        OFFSET -11.632228 -1.040302 -4.993509
        CHANNELS 3 Zrotation Xrotation Yrotation
        JOINT ElbowLeft
        {
          OFFSET -16.394244 -12.670092 1.610422
          CHANNELS 3 Zrotation Xrotation Yrotation
          JOINT WristLeft
          {
            OFFSET 3.126257 -17.694056 -4.250441
            CHANNELS 3 Zrotation Xrotation Yrotation
            JOINT HandLeft
            {
              OFFSET 3.668273 -6.027073 -1.293323
              CHANNELS 3 Zrotation Xrotation Yrotation
              JOINT HandTipLeft
              {
                OFFSET 3.237585 -5.519806 -2.678491
                CHANNELS 3 Zrotation Xrotation Yrotation
                End Site
                {
                  OFFSET 0 0 0
                }
              }
              JOINT ThumbLeft
              {
                OFFSET 4.219900 3.631561 -0.511762
                CHANNELS 3 Zrotation Xrotation Yrotation
                End Site
                {
                  OFFSET 0 0 0
                }
              }
            }
          }
        }
      }
      JOINT ShoulderRight
      {
        OFFSET 11.951489 -0.524149 3.311123
        CHANNELS 3 Zrotation Xrotation Yrotation
        JOINT ElbowRight
        {
          OFFSET 2.177049 -18.633203 7.501077
          CHANNELS 3 Zrotation Xrotation Yrotation
          JOINT WristRight
          {
            OFFSET 1.978856 -18.818001 -9.875794
            CHANNELS 3 Zrotation Xrotation Yrotation
            JOINT HandRight
            {
              OFFSET -2.100737 -5.119538 -1.300582
              CHANNELS 3 Zrotation Xrotation Yrotation
              JOINT HandTipRight
              {
                OFFSET -1.633510 -3.948612 -1.766216
                CHANNELS 3 Zrotation Xrotation Yrotation
                End Site
                {
                  OFFSET 0 0 0
                }
              }
              JOINT ThumbRight
              {
                OFFSET 2.594945 0.250909 -2.505496
                CHANNELS 3 Zrotation Xrotation Yrotation
                End Site
                {
                  OFFSET 0 0 0
                }
              }
            }
          }
        }
      }
    }
  }
  JOINT HipLeft
  {
    OFFSET -5.336589 1.257030 -4.538236
    CHANNELS 3 Zrotation Xrotation Yrotation
    JOINT KneeLeft
    {
      OFFSET -3.423704 -30.392922 -5.290727
      CHANNELS 3 Zrotation Xrotation Yrotation
      JOINT AnkleLeft
      {
        OFFSET -2.009294 -32.160772 3.128168
        CHANNELS 3 Zrotation Xrotation Yrotation
        JOINT FootLeft
        {
          OFFSET 3.271211 -4.370513 -5.072953
          CHANNELS 3 Zrotation Xrotation Yrotation
          End Site
          {
            OFFSET 0 0 0
          }
        }
      }
    }
  }
  JOINT HipRight
  {
    OFFSET 4.962173 0.651837 -1.508702
    CHANNELS 3 Zrotation Xrotation Yrotation
    JOINT KneeRight
    {
      OFFSET 1.276491 -28.313171 0.548421
      CHANNELS 3 Zrotation Xrotation Yrotation
      JOINT AnkleRight
      {
        OFFSET -2.165194 -36.565705 3.659792
        CHANNELS 3 Zrotation Xrotation Yrotation
        JOINT FootRight
        {
          OFFSET -0.683138 -3.660664 -6.948052
          CHANNELS 3 Zrotation Xrotation Yrotation
          End Site
          {
            OFFSET 0 0 0
          }
        }
      }
    }
  }
}
MOTION
Frames: 8
Frame Time: 0.033333
21.738172 68.789520 363.071600 -0.000000 0.000000 -16.392026 0.000000 0.000000 16.392026 -0.000000 0.000000 0.000000 -0.000000 0.000000 0.000000 0.000000 0.000000 0.000000 -0.000000 0.000000 0.000000 -0.000000 0.000000 0.000000 -0.000000 0.000000 0.000000 -0.000000 0.000000 0.000000 0.000000 0.000000 0.000000 0.000000 0.000000 0.000000 -0.000000 0.000000 0.000000 -0.000000 0.000000 0.000000 -0.000000 0.000000 0.000000 -0.000000 0.000000 0.000000 0.000000 0.000000 0.000000 0.000000 0.000000 0.000000 0.000000 0.000000 16.392026 -0.000000 0.000000 0.000000 -0.000000 0.000000 0.000000 0.000000 0.000000 0.000000 0.000000 0.000000 16.392026 -0.000000 0.000000 0.000000 -0.000000 0.000000 0.000000 0.000000 0.000000 0.000000
21.707794 68.767413 362.916034 0.026323 -0.105314 -15.831569 -0.054056 0.094138 15.831638 -0.000000 0.000000 0.000000 -0.174893 0.994705 -0.180230 0.000000 0.000000 0.000000 -0.421570 -1.063874 1.311276 -1.438087 -3.004969 -1.649818 -0.902921 5.170706 1.692128 1.490791 -2.906095 -1.779922 0.000000 0.000000 0.000000 0.000000 0.000000 0.000000 -0.000000 0.000000 0.000000 0.002999 -1.738715 -0.185861 -2.121587 6.229672 -0.961247 9.297224 -3.489692 -1.707309 0.000000 0.000000 0.000000 0.000000 0.000000 0.000000 -0.054056 0.094138 15.831638 -0.000000 0.000000 0.000000 -1.128216 -6.479570 -3.892265 0.000000 0.000000 0.000000 -0.054056 0.094138 15.831638 -0.000000 0.000000 0.000000 3.409325 7.731395 -7.248138 0.000000 0.000000 0.000000
21.689166 68.752722 362.746918 0.059998 -0.168093 -15.353099 -0.102363 0.146208 15.353317 -0.000000 0.000000 0.000000 -0.310302 1.871556 -0.337354 0.000000 0.000000 0.000000 -0.498423 -1.877721 2.339970 -2.971036 -5.133086 -2.948541 -1.745080 9.141015 3.333444 2.317609 -5.371859 -3.193594 0.000000 0.000000 0.000000 0.000000 0.000000 0.000000 0.145123 -1.129680 -0.071845 -0.044475 -2.080919 -0.319291 -3.857313 11.641441 -1.600570 15.074340 -6.887496 -1.213280 0.000000 0.000000 0.000000 0.000000 0.000000 0.000000 -0.102363 0.146208 15.353317 -0.000000 0.000000 0.000000 -2.206024 -11.024615 -6.779384 0.000000 0.000000 0.000000 -0.102363 0.146208 15.353317 -0.000000 0.000000 0.000000 6.297235 12.739617 -12.479634 0.000000 0.000000 0.000000
21.682288 68.745448 362.564251 0.101015 -0.188637 -14.956838 -0.146279 0.156175 14.957203 -0.000000 0.000000 0.000000 -0.406620 2.627545 -0.472204 0.000000 0.000000 0.000000 -0.242594 -2.431652 3.093309 -4.482709 -6.409125 -3.848587 -2.436555 11.908945 4.735261 2.512376 -7.169498 -4.115204 0.000000 0.000000 0.000000 0.000000 0.000000 0.000000 0.222694 -1.566743 -0.089856 0.067998 -2.844384 -0.527398 -5.297031 16.320653 -2.058330 18.808237 -10.047404 0.315089 0.000000 0.000000 0.000000 0.000000 0.000000 0.000000 -0.146279 0.156175 14.957203 -0.000000 0.000000 0.000000 -2.976206 -13.752830 -8.605242 0.000000 0.000000 0.000000 -0.146279 0.156175 14.957203 -0.000000 0.000000 0.000000 8.395428 15.857782 -15.977714 0.000000 0.000000 0.000000
21.687162 68.745591 362.368034 0.149376 -0.167169 -14.642852 -0.186783 0.123977 14.643272 -0.000000 0.000000 0.000000 -0.464244 3.260332 -0.585460 0.000000 0.000000 0.000000 0.337776 -2.721087 3.574204 -5.907390 -6.888497 -4.320242 -2.890462 13.517154 5.748041 2.158060 -8.085683 -4.405238 0.000000 0.000000 0.000000 0.000000 0.000000 0.000000 0.303812 -1.918013 -0.096049 0.270705 -3.420211 -0.767248 -6.488300 20.355500 -2.438892 21.168199 -13.074516 2.393949 0.000000 0.000000 0.000000 0.000000 0.000000 0.000000 -0.186783 0.123977 14.643272 -0.000000 0.000000 0.000000 -3.289153 -14.800022 -9.339346 0.000000 0.000000 0.000000 -0.027180 -0.789678 14.601048 0.075872 0.924382 0.042539 9.680793 17.684327 -18.025093 0.000000 0.000000 0.000000
21.703785 68.753150 362.158266 0.205096 -0.103829 -14.411076 -0.224484 0.049518 14.411359 -0.000000 0.000000 0.000000 -0.483562 3.768149 -0.677636 0.000000 0.000000 0.000000 1.238750 -2.745649 3.780518 -7.223046 -6.628662 -4.353785 -3.048979 14.016401 6.279158 1.364819 -7.952258 -3.938601 0.000000 0.000000 0.000000 0.000000 0.000000 0.000000 0.388565 -2.183188 -0.090551 0.564459 -3.808065 -1.039072 -7.448281 23.828356 -2.825648 22.462315 -16.134561 4.830065 0.000000 0.000000 0.000000 0.000000 0.000000 0.000000 -0.224484 0.049518 14.411359 -0.000000 0.000000 0.000000 -3.079298 -14.201421 -8.951953 0.000000 0.000000 0.000000 -0.057619 -1.102653 14.358291 0.124074 1.157561 0.053348 10.188924 18.557701 -18.811477 0.000000 0.000000 0.000000
21.768482 68.776421 361.915531 0.310773 -0.014780 -13.989590 -0.305129 -0.060786 13.989469 -0.000000 0.000000 0.000000 -0.456542 4.269984 -0.771787 0.000000 0.000000 0.000000 2.182270 -2.549000 3.704297 -7.326050 -4.779985 -3.927001 -2.051870 13.553365 6.283172 -0.290614 -7.145543 -3.148319 0.000000 0.000000 0.000000 0.000000 0.000000 0.000000 0.492967 -2.613160 -0.094753 1.009195 -4.109653 -1.400541 -9.452159 29.143264 -3.222120 23.321001 -22.201773 9.772985 0.000000 0.000000 0.000000 0.000000 0.000000 0.000000 -0.305129 -0.060786 13.989469 -0.000000 0.000000 0.000000 -0.843697 -4.737164 -2.749926 0.000000 0.000000 0.000000 -0.226757 -1.505113 13.921215 0.271465 1.420755 0.065959 7.263148 15.934525 -14.136656 0.000000 0.000000 0.000000
21.814414 68.796223 361.641897 0.386848 0.152738 -13.825844 -0.339143 -0.240755 13.824616 -0.000000 0.000000 0.000000 -0.393887 4.583960 -0.834157 0.000000 0.000000 0.000000 3.578929 -2.123376 3.397600 -8.348116 -2.981369 -3.169761 0.037667 12.764679 5.802561 -4.077638 -5.082149 -0.925390 0.000000 0.000000 0.000000 0.000000 0.000000 0.000000 0.563461 -2.867717 -0.093197 1.405902 -3.881704 -1.654175 -10.448529 32.544111 -3.826661 25.019736 -27.549448 14.217555 0.000000 0.000000 0.000000 0.000000 0.000000 0.000000 -0.549629 -1.097937 13.981613 0.411384 0.780918 -0.162260 0.209748 8.127618 5.379857 0.000000 0.000000 0.000000 -0.268076 -1.985416 13.742119 0.345508 1.711593 0.078716 5.912436 18.453104 -12.019478 0.000000 0.000000 0.000000
